<?xml version="1.0" encoding="utf-8"?>
<!-- Generator: Adobe Illustrator 27.0.1, SVG Export Plug-In . SVG Version: 6.00 Build 0)  -->
<svg version="1.1" id="Capa_1" xmlns="http://www.w3.org/2000/svg" xmlns:xlink="http://www.w3.org/1999/xlink" x="0px" y="0px"
	 viewBox="0 0 491.5 491.5" style="enable-background:new 0 0 491.5 491.5;" xml:space="preserve">
<style type="text/css">
	.st0{fill:#424242;}
	.st1{fill:#212121;}
	.st2{fill-rule:evenodd;clip-rule:evenodd;fill:#FD5B00;}
	.st3{fill:#FD5B00;}
	.st4{fill:#FFFFFF;}
	.st5{fill-rule:evenodd;clip-rule:evenodd;fill:#2A2A2A;}
	.st6{fill:#3D3D3F;}
</style>
<g>
	<path class="st0" d="M167.5,267.9L167.5,267.9c0,0.8,0.1,1.2,0.1,0.7L167.5,267.9z"/>
	<path class="st0" d="M167.7,268c0.1-1,0-0.7-0.2,0l0.1,0.7C167.6,268.5,167.7,268.3,167.7,268z"/>
	<path class="st1" d="M215,212.2c5.4,7.2,10.7,14.3,15.4,19.4l2,2.2l-1.3,2.7c-1.2,2.5-2,7.5-1.5,14.2c0.4,5.6,1.7,12.3,4.4,19.7
		l0.1,0.6c0.4,1,0.7,2.1,0.8,3.1c0.2,1.3,0.1,2.7-0.2,4.2c-0.8,3.8-2.4,7.4-4.3,11.3c-2.6,5.6-5.7,12-5.8,20
		c-0.1,4.5,0.8,14.5,2.4,26.2c1.4,9.9,3.2,20.9,5.4,30.4l-0.3,2.9c-2.6,5.7-5.5,12.1-8.6,17.9c-3.2,6.1-6.7,11.7-10.4,15.8
		c-5.8,6.6-11.6,12-17.6,16c-6.2,4.1-12.6,6.8-19.3,7.6c-5.4,0.7-11,0.2-16.9-1.6c-5.7-1.7-11.6-4.6-17.8-8.9
		c-9.7-6.7-21-19.8-31-34.1c-11.4-16.3-21.3-34.5-25.3-46.5c-13.5-40.1,29.4-54.2,58.6-63.8l0.5-0.2c-4.9,0-10.1,0-15.4,0
		c-17.3,0-35.2,0.1-43.4-0.7c-13.5-1.4-15.1-13.1-16.8-26.4c-0.3-2.5-0.7-5.1-1.1-7.6c-0.8-4.8-1.5-11.2-2.1-18.1
		c-1-10.6-2.2-22.3-4.2-29.5c-3.5-12.8-12.7-23.5-21.5-33.8c-6.7-7.9-13.3-15.6-17.6-24.2c-2.2-4.4-3.3-8.2-3.4-11.6
		c-0.3-6.2,2.2-10.7,6.4-14c3.7-2.8,8.8-4.5,14.3-5.4c9.6-1.5,20.9-0.6,28.4,0.8c9.8,1.8,21.4,5.8,32.6,10.7
		c12.7,5.6,25,12.4,34.1,18.5c11.5,7.8,23.3,18.4,34.7,29.7c11.3,11.2,21.9,23,30.9,33.3C204.9,198.7,210,205.5,215,212.2L215,212.2
		z"/>
	<path class="st2" d="M37.7,119.8c0.3,1.1,0.9,2.2,1.2,3c3.6,7.3,9.9,14.3,15.1,20.4c10.6,12.4,20.9,24.8,25.3,40.9
		c2.8,10.1,3.7,22.2,4.8,32.7c0.5,5.5,1,11.2,1.9,16.7c0.5,2.8,0.8,5.6,1.2,8.3c0.3,2,0.9,7.4,1.7,10.4c11.6,1,25.3,0.5,36.9,0.5
		c1,0,2,0,3,0c5.2,0,10.3,0,15.5,0l66.6,0.2c0-0.2,0-0.4-0.1-0.7c-0.3-4.5-0.3-9.3,0.4-14c-3.9-4.8-7.7-9.8-11.3-14.7
		c-4.5-6-9.1-12.2-14-17.8c-9.7-11.1-19.6-22-30-32.4c-9.8-9.8-20.6-19.7-32-27.5c-9.6-6.5-20.5-12.2-31.1-16.9
		c-8.8-3.9-18.9-7.7-28.4-9.5c-6.8-1.2-15.4-1.8-22.2-0.7C41.3,118.8,39.2,119.2,37.7,119.8L37.7,119.8z M213.8,268.2l-64,21.1
		c-7.6,2.5-15.1,5-22.5,8.1c-7.8,3.3-19.9,9.2-24.2,16.9c-2.7,4.8-1.8,10.2-0.1,15.2c4.6,13.5,14.7,30,22.9,41.7
		c6.5,9.3,16.9,23,26.2,29.4c3.8,2.6,8.2,5.1,12.6,6.4c3,0.9,6.1,1.3,9.2,0.9c4.1-0.5,7.9-2.4,11.3-4.6c5.2-3.4,9.9-8.1,14-12.8
		c3-3.4,5.7-8.2,7.9-12.2c2.2-4.1,4.2-8.3,6.1-12.5c-1.9-9-3.4-18.2-4.6-27.3c-1.2-9-2.8-20-2.5-29.1c0.2-10.3,3.3-18.4,7.6-27.5
		c0.7-1.5,1.8-3.7,2.5-5.5l0-0.1l-0.2-0.9C215.2,273,214.4,270.6,213.8,268.2L213.8,268.2z"/>
	<path class="st0" d="M227.2,223.2c0-0.6,0,0.1-0.1,0.3l0.1,0C227.2,223.3,227.2,223.2,227.2,223.2z"/>
	<path class="st1" d="M209.8,307.9c-66.9-63.4-78.8-105-76.4-115.5c0.1-23.4,38.8,9.8,58.2,14.7l-21.4-41.9L122.7,140
		c-46-17.3-79.8-23.4-56.4,23.2l63.9,27.9c-0.9,3.5-1.5,8.8,0.2,16.4l-53.3-18.4l-1.1,3.2l55.4,19.1c0.9,3.1,2.1,6.4,3.7,10.1
		l-56.2-6.1l-0.4,3.3l58.3,6.3c2.1,4.3,4.7,9,8,14.1c10.1,15.8,36.8,46.4,62.8,71.1L209.8,307.9L209.8,307.9z"/>
	<path class="st1" d="M203.5,302.4l-3-1c-13.7,41-20.7,41-24.7,40.5c-9.8-1.2-16-37.6-17.6-60.2l-3.1,0.2c0,0.1,1.1,15.2,4,30.3
		c0.1,0.4,0.1,0.7,0.2,1.1l-35.8,64.6l2.7,1.5l34-61.4c1.4,6.3,3,11.5,4.7,15.6l-0.2-0.1l-24.5,62.8l2.9,1.1l23.5-60.2
		c2.2,4,4.5,6.5,7.2,7.4l-9.3,57.4l3.1,0.5L177,345c0.7-0.1,1.5-0.2,2.2-0.5c1-0.4,1.9-0.9,2.9-1.6l12,52l3.1-0.7l-12.4-53.7
		c2.2-2.4,4.5-5.7,6.8-10l23.1,44.9l2.8-1.4l-24.2-46.9C197,319.4,199.3,314.8,203.5,302.4L203.5,302.4z"/>
	<path class="st3" d="M79.8,154c-1.4-3.8,4.7-9.7,13.6-13c9-3.4,17.4-3,18.8,0.9c1.4,3.8-4.7,9.7-13.6,13
		C89.7,158.2,81.2,157.8,79.8,154z"/>
	<path class="st3" d="M104.9,170c-1.3-3.6,2.7-8.4,9-10.8c6.3-2.4,12.5-1.4,13.9,2.2c1.3,3.6-2.7,8.4-9,10.8
		C112.5,174.6,106.2,173.6,104.9,170z"/>
	<path class="st1" d="M113.4,324.3c-1.4-3.8,4.7-9.7,13.6-13c9-3.4,17.4-3,18.8,0.9c1.4,3.8-4.7,9.7-13.6,13
		C123.3,328.6,114.9,328.2,113.4,324.3z"/>
	<path class="st4" d="M190.9,411.6c0.7,1.5,2.5,2.1,4,1.4c1.5-0.7,2.1-2.5,1.4-4c-0.7-1.5-2.5-2.1-4-1.4
		C190.8,408.4,190.2,410.2,190.9,411.6z"/>
	<path class="st4" d="M176,418.4c1.1,2.2,3.7,3.1,5.9,2.1c2.2-1.1,3.1-3.7,2.1-5.9c-1.1-2.2-3.7-3.1-5.9-2.1
		C175.9,413.5,174.9,416.1,176,418.4z"/>
	<path class="st4" d="M158.5,419.4c1.4,3,5,4.2,7.9,2.8c3-1.4,4.2-5,2.8-7.9c-1.4-3-5-4.2-7.9-2.8S157.1,416.5,158.5,419.4z"/>
	<path class="st4" d="M142.2,410.4c1.2,2.4,4,3.4,6.4,2.3c2.4-1.2,3.4-4,2.3-6.4c-1.2-2.4-4-3.4-6.4-2.3
		C142,405.1,141,408,142.2,410.4z"/>
	<path class="st4" d="M131.8,397.8c0.7,1.5,2.5,2.1,4,1.4c1.5-0.7,2.1-2.5,1.4-4c-0.7-1.5-2.5-2.1-4-1.4
		C131.7,394.5,131.1,396.3,131.8,397.8L131.8,397.8z"/>
	<path class="st4" d="M200.6,402.6c0.6,1.2,2,1.7,3.2,1.1c1.2-0.6,1.7-2,1.1-3.2c-0.6-1.2-2-1.7-3.2-1.1
		C200.6,400,200,401.4,200.6,402.6L200.6,402.6z"/>
	<path class="st4" d="M208.1,393.7c0.5,0.9,1.6,1.3,2.5,0.9c0.9-0.5,1.3-1.6,0.9-2.5c-0.5-0.9-1.6-1.3-2.5-0.9
		C208.1,391.7,207.7,392.8,208.1,393.7L208.1,393.7z"/>
	<path class="st4" d="M216,383.3c0.3,0.7,1.1,1,1.8,0.6c0.7-0.3,1-1.1,0.6-1.8c-0.3-0.7-1.1-1-1.8-0.6
		C216,381.8,215.7,382.6,216,383.3z"/>
	<path class="st4" d="M119.8,386.6c1.2,2.4,4,3.4,6.4,2.3c2.4-1.2,3.4-4,2.3-6.4c-1.2-2.4-4-3.4-6.4-2.3
		C119.7,381.4,118.7,384.2,119.8,386.6z"/>
	<path class="st4" d="M110.5,370.1c0.7,1.5,2.5,2.1,4,1.4c1.5-0.7,2.1-2.5,1.4-4c-0.7-1.5-2.5-2.1-4-1.4
		C110.4,366.8,109.8,368.6,110.5,370.1L110.5,370.1z"/>
	<path class="st4" d="M99.4,353.6c1.2,2.4,4,3.4,6.4,2.3c2.4-1.2,3.4-4,2.3-6.4c-1.2-2.4-4-3.4-6.4-2.3
		C99.3,348.4,98.2,351.3,99.4,353.6z"/>
	<path class="st4" d="M92.8,336.8c0.7,1.5,2.5,2.1,4,1.4c1.5-0.7,2.1-2.5,1.4-4c-0.7-1.5-2.5-2.1-4-1.4
		C92.7,333.5,92.1,335.3,92.8,336.8L92.8,336.8z"/>
	<path class="st4" d="M89.5,318.4c1.2,2.4,4,3.4,6.4,2.3c2.4-1.2,3.4-4,2.3-6.4c-1.2-2.4-4-3.4-6.4-2.3
		C89.3,313.1,88.3,316,89.5,318.4L89.5,318.4z"/>
	<path class="st4" d="M99.1,303c0.7,1.5,2.5,2.1,4,1.4c1.5-0.7,2.1-2.5,1.4-4c-0.7-1.5-2.5-2.1-4-1.4C99,299.8,98.4,301.5,99.1,303
		L99.1,303z"/>
	<path class="st4" d="M109.3,295.2c1.2,2.4,4,3.4,6.4,2.3c2.4-1.2,3.4-4,2.3-6.4c-1.2-2.4-4-3.4-6.4-2.3
		C109.1,290,108.1,292.8,109.3,295.2z"/>
	<path class="st4" d="M124.1,288.4c0.7,1.5,2.5,2.1,4,1.4c1.5-0.7,2.1-2.5,1.4-4c-0.7-1.5-2.5-2.1-4-1.4
		C124,285.2,123.4,287,124.1,288.4L124.1,288.4z"/>
	<path class="st4" d="M135.3,285c1.2,2.4,4,3.4,6.4,2.3c2.4-1.2,3.4-4,2.3-6.4c-1.2-2.4-4-3.4-6.4-2.3
		C135.2,279.7,134.2,282.6,135.3,285z"/>
	<path class="st4" d="M154.3,277.8c0.7,1.5,2.5,2.1,4,1.4c1.5-0.7,2.1-2.5,1.4-4c-0.7-1.5-2.5-2.1-4-1.4
		C154.2,274.5,153.6,276.3,154.3,277.8L154.3,277.8z"/>
	<path class="st4" d="M189.9,265.9c0.9,1.8,3.1,2.6,4.9,1.7c1.8-0.9,2.6-3.1,1.7-4.9s-3.1-2.6-4.9-1.7
		C189.8,261.9,189.1,264.1,189.9,265.9L189.9,265.9z"/>
	<path class="st4" d="M167.1,269.4c1.9,3.9,6.5,5.5,10.3,3.6c3.9-1.9,5.5-6.5,3.6-10.3c-1.9-3.9-6.5-5.5-10.3-3.6
		C166.9,260.9,165.3,265.5,167.1,269.4z"/>
	<path class="st4" d="M152.7,262.5c0.7,1.5,2.5,2.1,4,1.4c1.5-0.7,2.1-2.5,1.4-4c-0.7-1.5-2.5-2.1-4-1.4
		C152.6,259.3,151.9,261.1,152.7,262.5L152.7,262.5z"/>
	<path class="st4" d="M132.6,263c1.2,2.4,4,3.4,6.4,2.3c2.4-1.2,3.4-4,2.3-6.4c-1.2-2.4-4-3.4-6.4-2.3
		C132.4,257.7,131.4,260.6,132.6,263L132.6,263z"/>
	<path class="st4" d="M203.3,263.5c0.7,1.4,2.3,2,3.7,1.3c1.4-0.7,2-2.3,1.3-3.7c-0.7-1.4-2.3-2-3.7-1.3
		C203.2,260.5,202.6,262.2,203.3,263.5z"/>
	<path class="st4" d="M117,263.6c0.7,1.5,2.5,2.1,4,1.4c1.5-0.7,2.1-2.5,1.4-4c-0.7-1.5-2.5-2.1-4-1.4
		C116.9,260.4,116.3,262.2,117,263.6z"/>
	<path class="st4" d="M96.9,264.1c1.2,2.4,4,3.4,6.4,2.3c2.4-1.2,3.4-4,2.3-6.4c-1.2-2.4-4-3.4-6.4-2.3
		C96.7,258.8,95.7,261.7,96.9,264.1z"/>
	<path class="st4" d="M81.3,260.8c0.7,1.5,2.5,2.1,4,1.4c1.5-0.7,2.1-2.5,1.4-4c-0.7-1.5-2.5-2.1-4-1.4
		C81.2,257.5,80.6,259.3,81.3,260.8z"/>
	<path class="st4" d="M74.7,246.7c1.2,2.4,4,3.4,6.4,2.3c2.4-1.2,3.4-4,2.3-6.4c-1.2-2.4-4-3.4-6.4-2.3
		C74.5,241.4,73.5,244.3,74.7,246.7z"/>
	<path class="st4" d="M74,228.1c0.7,1.5,2.5,2.1,4,1.4c1.5-0.7,2.1-2.5,1.4-4c-0.7-1.5-2.5-2.1-4-1.4
		C73.9,224.9,73.3,226.7,74,228.1z"/>
	<path class="st4" d="M69.8,210.1c1.2,2.4,4,3.4,6.4,2.3c2.4-1.2,3.4-4,2.3-6.4s-4-3.4-6.4-2.3C69.7,204.8,68.7,207.7,69.8,210.1
		L69.8,210.1z"/>
	<path class="st4" d="M68,190.6c0.7,1.5,2.5,2.1,4,1.4c1.5-0.7,2.1-2.5,1.4-4c-0.7-1.5-2.5-2.1-4-1.4C68,187.3,67.3,189.1,68,190.6
		L68,190.6z"/>
	<path class="st4" d="M58.9,172.7c1.2,2.4,4,3.4,6.4,2.3c2.4-1.2,3.4-4,2.3-6.4c-1.2-2.4-4-3.4-6.4-2.3
		C58.8,167.4,57.8,170.3,58.9,172.7z"/>
	<path class="st4" d="M47.6,155.7c0.7,1.5,2.5,2.1,4,1.4c1.5-0.7,2.1-2.5,1.4-4c-0.7-1.5-2.5-2.1-4-1.4
		C47.5,152.5,46.9,154.3,47.6,155.7z"/>
	<path class="st4" d="M34.9,140.4c1.2,2.4,4,3.4,6.4,2.3c2.4-1.2,3.4-4,2.3-6.4c-1.2-2.4-4-3.4-6.4-2.3
		C34.7,135.1,33.7,138,34.9,140.4z"/>
	<path class="st4" d="M25.7,123.8c0.7,1.5,2.5,2.1,4,1.4c1.5-0.7,2.1-2.5,1.4-4c-0.7-1.5-2.5-2.1-4-1.4
		C25.6,120.5,24.9,122.3,25.7,123.8z"/>
	<path class="st4" d="M32.1,111.4c1.2,2.4,4,3.4,6.4,2.3c2.4-1.2,3.4-4,2.3-6.4c-1.2-2.4-4-3.4-6.4-2.3
		C31.9,106.2,30.9,109.1,32.1,111.4L32.1,111.4z"/>
	<path class="st4" d="M53.3,109.4c0.7,1.5,2.5,2.1,4,1.4c1.5-0.7,2.1-2.5,1.4-4c-0.7-1.5-2.5-2.1-4-1.4
		C53.2,106.1,52.6,107.9,53.3,109.4L53.3,109.4z"/>
	<path class="st4" d="M67.9,113.1c1.2,2.4,4,3.4,6.4,2.3c2.4-1.2,3.4-4,2.3-6.4c-1.2-2.4-4-3.4-6.4-2.3
		C67.7,107.9,66.7,110.7,67.9,113.1z"/>
	<path class="st4" d="M88.8,120.2c0.7,1.5,2.5,2.1,4,1.4c1.5-0.7,2.1-2.5,1.4-4c-0.7-1.5-2.5-2.1-4-1.4
		C88.7,116.9,88.1,118.7,88.8,120.2L88.8,120.2z"/>
	<path class="st4" d="M104.1,129.1c1.2,2.4,4,3.4,6.4,2.3c2.4-1.2,3.4-4,2.3-6.4c-1.2-2.4-4-3.4-6.4-2.3
		C104,123.8,103,126.7,104.1,129.1z"/>
	<path class="st4" d="M122.8,137.7c0.7,1.5,2.5,2.1,4,1.4c1.5-0.7,2.1-2.5,1.4-4c-0.7-1.5-2.5-2.1-4-1.4
		C122.7,134.4,122.1,136.2,122.8,137.7L122.8,137.7z"/>
	<path class="st4" d="M135.4,149c1.2,2.4,4,3.4,6.4,2.3c2.4-1.2,3.4-4,2.3-6.4c-1.2-2.4-4-3.4-6.4-2.3
		C135.3,143.7,134.3,146.6,135.4,149z"/>
	<path class="st4" d="M148.8,159.9c0.7,1.5,2.5,2.1,4,1.4c1.5-0.7,2.1-2.5,1.4-4c-0.7-1.5-2.5-2.1-4-1.4
		C148.7,156.6,148.1,158.4,148.8,159.9L148.8,159.9z"/>
	<path class="st4" d="M161.4,171.2c1.2,2.4,4,3.4,6.4,2.3c2.4-1.2,3.4-4,2.3-6.4c-1.2-2.4-4-3.4-6.4-2.3
		C161.3,165.9,160.3,168.8,161.4,171.2z"/>
	<path class="st4" d="M174.7,183.6c0.7,1.5,2.5,2.1,4,1.4c1.5-0.7,2.1-2.5,1.4-4c-0.7-1.5-2.5-2.1-4-1.4
		C174.6,180.3,174,182.1,174.7,183.6L174.7,183.6z"/>
	<path class="st4" d="M183.9,196.4c1.2,2.4,4,3.4,6.4,2.3c2.4-1.2,3.4-4,2.3-6.4c-1.2-2.4-4-3.4-6.4-2.3
		C183.8,191.1,182.8,194,183.9,196.4z"/>
	<path class="st4" d="M197.5,209.6c0.7,1.5,2.5,2.1,4,1.4c1.5-0.7,2.1-2.5,1.4-4c-0.7-1.5-2.5-2.1-4-1.4
		C197.4,206.4,196.8,208.2,197.5,209.6L197.5,209.6z"/>
	<path class="st4" d="M206,223.5c1.2,2.4,4,3.4,6.4,2.3c2.4-1.2,3.4-4,2.3-6.4c-1.2-2.4-4-3.4-6.4-2.3
		C205.8,218.2,204.8,221.1,206,223.5z"/>
	<path class="st0" d="M319,271.5L319,271.5c-0.1,0.8-0.1,1.2-0.2,0.7L319,271.5z"/>
	<path class="st0" d="M318.8,271.5c0-1,0-0.7,0.2,0l-0.2,0.7C318.8,272.1,318.8,271.9,318.8,271.5z"/>
	<path class="st1" d="M273.5,214.1c-5.6,7-11.2,13.9-16.1,18.8l-2.1,2.2l1.2,2.8c1.1,2.6,1.7,7.5,1,14.3c-0.6,5.6-2.2,12.2-5.1,19.6
		l-0.1,0.6c-0.4,1-0.7,2-0.9,3.1c-0.2,1.3-0.2,2.7,0,4.2c0.6,3.8,2.2,7.4,3.9,11.4c2.4,5.7,5.2,12.2,5.1,20.2
		c-0.1,4.5-1.3,14.5-3.3,26c-1.7,9.9-4,20.8-6.5,30.2l0.2,2.9c2.4,5.8,5.1,12.3,7.9,18.2c3,6.2,6.3,11.9,9.8,16.2
		c5.6,6.8,11.2,12.4,17,16.6c6.1,4.4,12.3,7.2,19,8.3c5.4,0.9,11,0.6,17-0.9c5.7-1.5,11.7-4.2,18.1-8.3c10-6.3,21.7-19,32.2-33
		c12-15.9,22.5-33.7,27-45.5c14.9-39.6-27.4-55.3-56.3-65.9l-0.5-0.2c4.9,0.2,10.1,0.4,15.4,0.6c17.3,0.7,35.2,1.4,43.4,0.8
		c13.6-0.9,15.5-12.5,17.8-25.8c0.4-2.5,0.9-5.1,1.4-7.5c1-4.8,1.9-11.1,2.8-18c1.4-10.5,3-22.2,5.2-29.3c4-12.6,13.5-23,22.8-33
		c7-7.6,13.9-15.1,18.5-23.5c2.3-4.3,3.6-8.1,3.9-11.5c0.5-6.2-1.8-10.8-5.9-14.2c-3.6-3-8.6-4.8-14.1-5.9
		c-9.5-1.8-20.8-1.3-28.4-0.2c-9.9,1.4-21.6,5-33,9.5c-12.8,5.1-25.4,11.4-34.7,17.3c-11.7,7.4-24,17.6-35.7,28.4
		c-11.7,10.8-22.7,22.2-32.1,32.1C284.2,200.9,278.8,207.5,273.5,214.1L273.5,214.1z"/>
	<path class="st2" d="M454.1,128.2c-0.4,1-0.9,2.2-1.3,2.9c-3.9,7.1-10.4,13.9-15.9,19.8c-11.1,12-21.7,24-26.8,40
		c-3.2,10-4.5,22-6,32.5c-0.7,5.5-1.4,11.2-2.5,16.6c-0.6,2.8-1.1,5.5-1.5,8.3c-0.3,2-1.1,7.3-2.1,10.3c-11.7,0.6-25.3-0.4-36.9-0.8
		c-1,0-2-0.1-3-0.1c-5.2-0.2-10.3-0.4-15.5-0.6l-66.6-2.3c0-0.2,0.1-0.4,0.1-0.7c0.5-4.4,0.7-9.3,0.1-14c4.1-4.7,8-9.6,11.9-14.3
		c4.7-5.8,9.5-11.8,14.7-17.3c10.1-10.7,20.4-21.3,31.2-31.3c10.1-9.4,21.3-19,33-26.3c9.8-6.2,20.9-11.5,31.7-15.7
		c8.9-3.6,19.2-7,28.8-8.4c6.8-1,15.4-1.2,22.2,0.1C450.5,127.1,452.6,127.6,454.1,128.2L454.1,128.2z M272.7,270.1l63.2,23.4
		c7.5,2.8,14.9,5.5,22.2,8.9c7.7,3.6,19.5,9.9,23.5,17.8c2.5,4.9,1.4,10.2-0.4,15.2c-5,13.4-15.8,29.4-24.4,40.9
		c-6.8,9-17.7,22.3-27.3,28.4c-3.9,2.5-8.3,4.8-12.9,6c-3,0.8-6.1,1.1-9.2,0.6c-4.1-0.7-7.8-2.6-11.1-5c-5-3.6-9.6-8.5-13.5-13.3
		c-2.9-3.6-5.4-8.4-7.4-12.5c-2-4.2-3.9-8.4-5.7-12.7c2.2-8.9,4.1-18.1,5.6-27.1c1.6-9,3.5-19.9,3.6-29c0.1-10.3-2.6-18.5-6.6-27.8
		c-0.7-1.5-1.7-3.7-2.3-5.6l0-0.1l0.2-0.9C271.2,274.8,272,272.4,272.7,270.1L272.7,270.1z"/>
	<path class="st0" d="M261,224.6c0-0.6,0,0.1,0.1,0.3l-0.1,0C261,224.7,261,224.6,261,224.6z"/>
	<path class="st1" d="M275.2,309.8c69.2-60.9,82.6-102.1,80.5-112.6c0.8-23.4-39.1,8.4-58.7,12.5l22.9-41.1l48.4-23.4
		c46.6-15.6,80.6-20.5,55.5,25.2l-64.9,25.6c0.8,3.5,1.1,8.9-0.8,16.4l54-16.4l1,3.2l-56.1,17.1c-1,3-2.3,6.4-4.1,10l56.4-4.1
		l0.2,3.3l-58.4,4.2c-2.2,4.2-5,8.8-8.5,13.8c-10.7,15.4-38.4,45.1-65.3,68.7L275.2,309.8L275.2,309.8z"/>
	<path class="st1" d="M281.8,304.6l3-0.9c12.1,41.5,19.2,41.7,23.2,41.4c9.8-0.9,17.3-37,19.8-59.5l3.1,0.3c0,0.1-1.7,15.2-5.1,30.2
		c-0.1,0.4-0.2,0.7-0.3,1l33.4,65.8l-2.8,1.4l-31.8-62.6c-1.6,6.2-3.4,11.4-5.2,15.4l0.2-0.1l22.2,63.6l-3,1l-21.2-61
		c-2.3,3.9-4.8,6.3-7.4,7.1l7.2,57.7l-3.1,0.4l-7.2-57.7c-0.7-0.1-1.4-0.3-2.2-0.6c-0.9-0.4-1.9-1-2.8-1.8l-13.9,51.5l-3-0.8
		l14.4-53.2c-2.1-2.5-4.3-5.9-6.5-10.3l-24.8,44l-2.7-1.5l25.8-45.9C287.6,321.9,285.5,317.2,281.8,304.6L281.8,304.6z"/>
	<path class="st3" d="M410.8,160.8c1.6-3.8-4.3-9.8-13.1-13.5c-8.8-3.7-17.3-3.6-18.9,0.2c-1.6,3.8,4.3,9.8,13.1,13.5
		C400.8,164.7,409.2,164.6,410.8,160.8L410.8,160.8z"/>
	<path class="st3" d="M385.1,175.9c1.5-3.5-2.4-8.5-8.6-11.1c-6.2-2.6-12.5-1.9-14,1.7c-1.5,3.5,2.4,8.5,8.6,11.1
		C377.4,180.2,383.7,179.5,385.1,175.9L385.1,175.9z"/>
	<path class="st1" d="M371,329.8c1.6-3.8-4.3-9.8-13.1-13.5c-8.8-3.7-17.3-3.6-18.9,0.2c-1.6,3.8,4.3,9.8,13.1,13.5
		C360.9,333.7,369.4,333.6,371,329.8L371,329.8z"/>
	<path class="st4" d="M290.4,414.2c-0.8,1.4-2.6,2-4,1.2c-1.4-0.8-2-2.6-1.2-4c0.8-1.4,2.6-2,4-1.2
		C290.6,411,291.1,412.8,290.4,414.2L290.4,414.2z"/>
	<path class="st4" d="M305,421.5c-1.1,2.2-3.8,3-6,1.9c-2.2-1.1-3-3.8-1.9-6c1.1-2.2,3.8-3,6-1.9C305.3,416.6,306.2,419.3,305,421.5
		L305,421.5z"/>
	<path class="st4" d="M322.4,423.2c-1.5,2.9-5.1,4-8,2.5c-2.9-1.5-4-5.1-2.5-8c1.5-2.9,5.1-4,8-2.5
		C322.8,416.7,323.9,420.3,322.4,423.2L322.4,423.2z"/>
	<path class="st4" d="M339.1,414.8c-1.2,2.4-4.1,3.3-6.5,2c-2.4-1.2-3.3-4.2-2-6.5c1.2-2.4,4.1-3.3,6.5-2
		C339.4,409.5,340.3,412.4,339.1,414.8L339.1,414.8z"/>
	<path class="st4" d="M349.9,402.6c-0.8,1.4-2.6,2-4,1.2c-1.4-0.8-2-2.6-1.2-4c0.8-1.4,2.6-2,4-1.2
		C350.1,399.3,350.7,401.1,349.9,402.6z"/>
	<path class="st4" d="M281,404.9c-0.6,1.2-2.1,1.6-3.3,1c-1.2-0.6-1.6-2.1-1-3.3c0.6-1.2,2.1-1.6,3.3-1
		C281.1,402.2,281.6,403.7,281,404.9L281,404.9z"/>
	<path class="st4" d="M273.8,395.7c-0.5,0.9-1.6,1.3-2.5,0.8c-0.9-0.5-1.3-1.6-0.8-2.6c0.5-0.9,1.6-1.3,2.6-0.8
		C273.9,393.7,274.3,394.8,273.8,395.7L273.8,395.7z"/>
	<path class="st4" d="M266.3,385c-0.3,0.7-1.2,0.9-1.8,0.6c-0.7-0.3-0.9-1.2-0.6-1.8c0.3-0.7,1.2-0.9,1.8-0.6
		C266.4,383.5,266.6,384.3,266.3,385z"/>
	<path class="st4" d="M362.3,391.9c-1.2,2.4-4.1,3.3-6.5,2c-2.4-1.2-3.3-4.2-2-6.5c1.2-2.4,4.1-3.3,6.5-2
		C362.7,386.6,363.6,389.5,362.3,391.9L362.3,391.9z"/>
	<path class="st4" d="M372.2,375.6c-0.8,1.4-2.6,2-4,1.2c-1.4-0.8-2-2.6-1.2-4c0.8-1.4,2.6-2,4-1.2
		C372.4,372.4,373,374.2,372.2,375.6z"/>
	<path class="st4" d="M383.9,359.6c-1.2,2.4-4.1,3.3-6.5,2c-2.4-1.2-3.3-4.2-2-6.5c1.2-2.4,4.1-3.3,6.5-2
		C384.3,354.4,385.2,357.3,383.9,359.6z"/>
	<path class="st4" d="M391.1,343c-0.8,1.4-2.6,2-4,1.2c-1.4-0.8-2-2.6-1.2-4c0.8-1.4,2.6-2,4-1.2C391.3,339.8,391.9,341.6,391.1,343
		z"/>
	<path class="st4" d="M395.1,324.8c-1.2,2.4-4.1,3.3-6.5,2c-2.4-1.2-3.3-4.2-2-6.5c1.2-2.4,4.1-3.3,6.5-2
		C395.5,319.5,396.4,322.4,395.1,324.8z"/>
	<path class="st4" d="M386.1,309c-0.8,1.4-2.6,2-4,1.2c-1.4-0.8-2-2.6-1.2-4c0.8-1.4,2.6-2,4-1.2C386.3,305.8,386.9,307.6,386.1,309
		z"/>
	<path class="st4" d="M376.2,300.9c-1.2,2.4-4.1,3.3-6.5,2c-2.4-1.2-3.3-4.2-2-6.5c1.2-2.4,4.1-3.3,6.5-2
		C376.5,295.6,377.4,298.5,376.2,300.9L376.2,300.9z"/>
	<path class="st4" d="M361.6,293.6c-0.8,1.4-2.6,2-4,1.2c-1.4-0.8-2-2.6-1.2-4c0.8-1.4,2.6-2,4-1.2
		C361.8,290.3,362.4,292.1,361.6,293.6z"/>
	<path class="st4" d="M350.5,289.7c-1.2,2.4-4.1,3.3-6.5,2c-2.4-1.2-3.3-4.2-2-6.5c1.2-2.4,4.1-3.3,6.5-2
		C350.9,284.4,351.8,287.4,350.5,289.7L350.5,289.7z"/>
	<path class="st4" d="M331.8,281.8c-0.8,1.4-2.6,2-4,1.2c-1.4-0.8-2-2.6-1.2-4c0.8-1.4,2.6-2,4-1.2S332.6,280.4,331.8,281.8z"/>
	<path class="st4" d="M296.6,268.7c-0.9,1.8-3.2,2.5-5,1.5c-1.8-0.9-2.5-3.2-1.5-5c0.9-1.8,3.2-2.5,5-1.5
		C296.9,264.7,297.6,266.9,296.6,268.7L296.6,268.7z"/>
	<path class="st4" d="M319.3,272.9c-2,3.8-6.7,5.2-10.5,3.2c-3.8-2-5.2-6.7-3.2-10.5c2-3.8,6.7-5.2,10.5-3.2
		C319.9,264.5,321.3,269.2,319.3,272.9L319.3,272.9z"/>
	<path class="st4" d="M334,266.6c-0.8,1.4-2.6,2-4,1.2c-1.4-0.8-2-2.6-1.2-4c0.8-1.4,2.6-2,4-1.2C334.2,263.4,334.8,265.2,334,266.6
		L334,266.6z"/>
	<path class="st4" d="M354.1,267.8c-1.2,2.4-4.2,3.3-6.5,2c-2.4-1.2-3.3-4.1-2-6.5c1.2-2.4,4.1-3.3,6.5-2
		C354.4,262.5,355.3,265.4,354.1,267.8L354.1,267.8z"/>
	<path class="st4" d="M283.4,265.8c-0.7,1.4-2.4,1.9-3.8,1.2c-1.4-0.7-1.9-2.4-1.2-3.8c0.7-1.4,2.4-1.9,3.8-1.2
		C283.6,262.8,284.1,264.4,283.4,265.8L283.4,265.8z"/>
	<path class="st4" d="M369.7,269c-0.8,1.4-2.6,2-4,1.2c-1.4-0.8-2-2.6-1.2-4c0.8-1.4,2.6-2,4-1.2C369.9,265.8,370.4,267.6,369.7,269
		z"/>
	<path class="st4" d="M389.7,270.2c-1.2,2.4-4.1,3.3-6.5,2c-2.4-1.2-3.3-4.2-2-6.5c1.2-2.4,4.1-3.3,6.5-2
		C390.1,264.9,391,267.9,389.7,270.2z"/>
	<path class="st4" d="M405.4,267.5c-0.8,1.4-2.6,2-4,1.2c-1.4-0.8-2-2.6-1.2-4c0.8-1.4,2.6-2,4-1.2
		C405.6,264.2,406.2,266,405.4,267.5z"/>
	<path class="st4" d="M412.5,253.6c-1.2,2.4-4.2,3.3-6.5,2c-2.4-1.2-3.3-4.2-2-6.5c1.2-2.4,4.1-3.3,6.5-2
		C412.9,248.4,413.8,251.3,412.5,253.6z"/>
	<path class="st4" d="M413.9,235.1c-0.8,1.4-2.6,2-4,1.2c-1.4-0.8-2-2.6-1.2-4c0.8-1.4,2.6-2,4-1.2
		C414.1,231.9,414.6,233.7,413.9,235.1L413.9,235.1z"/>
	<path class="st4" d="M418.7,217.2c-1.2,2.4-4.1,3.3-6.5,2c-2.4-1.2-3.3-4.1-2-6.5c1.2-2.4,4.1-3.3,6.5-2
		C419,211.9,419.9,214.9,418.7,217.2z"/>
	<path class="st4" d="M421.2,197.8c-0.8,1.4-2.6,2-4,1.2c-1.4-0.8-2-2.6-1.2-4c0.8-1.4,2.6-2,4-1.2
		C421.4,194.6,422,196.4,421.2,197.8z"/>
	<path class="st4" d="M431,180.3c-1.2,2.4-4.1,3.3-6.5,2c-2.4-1.2-3.3-4.2-2-6.5c1.2-2.4,4.1-3.3,6.5-2
		C431.3,175,432.2,177.9,431,180.3z"/>
	<path class="st4" d="M442.9,163.7c-0.8,1.4-2.6,2-4,1.2c-1.4-0.8-2-2.6-1.2-4c0.8-1.4,2.6-2,4-1.2
		C443.1,160.5,443.7,162.3,442.9,163.7z"/>
	<path class="st4" d="M456.2,148.9c-1.2,2.4-4.2,3.3-6.5,2c-2.4-1.2-3.3-4.2-2-6.5c1.2-2.4,4.1-3.3,6.5-2
		C456.5,143.6,457.4,146.5,456.2,148.9z"/>
	<path class="st4" d="M466,132.6c-0.8,1.4-2.6,2-4,1.2c-1.4-0.8-2-2.6-1.2-4c0.8-1.4,2.6-2,4-1.2C466.2,129.4,466.8,131.2,466,132.6
		z"/>
	<path class="st4" d="M460.1,120.1c-1.2,2.4-4.1,3.3-6.5,2c-2.4-1.2-3.3-4.1-2-6.5c1.2-2.4,4.1-3.3,6.5-2
		C460.4,114.8,461.3,117.7,460.1,120.1z"/>
	<path class="st4" d="M438.9,117.2c-0.8,1.4-2.6,2-4,1.2c-1.4-0.8-2-2.6-1.2-4c0.8-1.4,2.6-2,4-1.2
		C439.1,114,439.6,115.8,438.9,117.2L438.9,117.2z"/>
	<path class="st4" d="M424.2,120.4c-1.2,2.4-4.2,3.3-6.5,2c-2.4-1.2-3.3-4.1-2-6.5c1.2-2.4,4.1-3.3,6.5-2
		C424.5,115.2,425.4,118.1,424.2,120.4L424.2,120.4z"/>
	<path class="st4" d="M403,126.7c-0.8,1.4-2.6,2-4,1.2c-1.4-0.8-2-2.6-1.2-4c0.8-1.4,2.6-2,4-1.2C403.2,123.5,403.8,125.3,403,126.7
		z"/>
	<path class="st4" d="M387.4,135c-1.2,2.4-4.1,3.3-6.5,2c-2.4-1.2-3.3-4.1-2-6.5c1.2-2.4,4.1-3.3,6.5-2
		C387.7,129.8,388.6,132.7,387.4,135z"/>
	<path class="st4" d="M368.4,143c-0.8,1.4-2.6,2-4,1.2c-1.4-0.8-2-2.6-1.2-4c0.8-1.4,2.6-2,4-1.2C368.6,139.7,369.2,141.5,368.4,143
		L368.4,143z"/>
	<path class="st4" d="M355.4,153.8c-1.2,2.4-4.1,3.3-6.5,2c-2.4-1.2-3.3-4.2-2-6.5c1.2-2.4,4.1-3.3,6.5-2
		C355.7,148.6,356.6,151.5,355.4,153.8z"/>
	<path class="st4" d="M341.6,164.2c-0.8,1.4-2.6,2-4,1.2c-1.4-0.8-2-2.6-1.2-4c0.8-1.4,2.6-2,4-1.2
		C341.8,160.9,342.4,162.7,341.6,164.2z"/>
	<path class="st4" d="M328.6,175c-1.2,2.4-4.1,3.3-6.5,2c-2.4-1.2-3.3-4.2-2-6.5c1.2-2.4,4.1-3.3,6.5-2
		C328.9,169.8,329.8,172.7,328.6,175L328.6,175z"/>
	<path class="st4" d="M314.9,186.9c-0.8,1.4-2.6,2-4,1.2s-2-2.6-1.2-4c0.8-1.4,2.6-2,4-1.2S315.6,185.5,314.9,186.9z"/>
	<path class="st4" d="M305.2,199.4c-1.2,2.4-4.2,3.3-6.5,2c-2.4-1.2-3.3-4.2-2-6.5c1.2-2.4,4.1-3.3,6.5-2
		C305.5,194.1,306.4,197.1,305.2,199.4L305.2,199.4z"/>
	<path class="st4" d="M291.1,212.1c-0.8,1.4-2.6,2-4,1.2c-1.4-0.8-2-2.6-1.2-4c0.8-1.4,2.6-2,4-1.2
		C291.3,208.9,291.9,210.7,291.1,212.1z"/>
	<path class="st4" d="M282.2,225.7c-1.2,2.4-4.2,3.3-6.5,2c-2.4-1.2-3.3-4.1-2-6.5c1.2-2.4,4.1-3.3,6.5-2
		C282.5,220.4,283.4,223.3,282.2,225.7L282.2,225.7z"/>
	<path class="st0" d="M324.1,271.1c0,0.1,0,0.2,0,0.3C324.1,270.5,324,270.1,324.1,271.1L324.1,271.1z"/>
	<path class="st0" d="M259.6,223.9c0,0.1,0,0.2,0,0.3l0.1,0C259.7,224,259.6,223.3,259.6,223.9L259.6,223.9z"/>
	<path class="st1" d="M243,198.3c0.5,0,0.8,0,1,0c0.5,0,1.2,0.1,1.8,0.1l0.5,0l0.1,0c0.5,0,1.1,0.1,1.6,0.2c0.7,0.1,1.2,0.2,1.6,0.2
		c12.7,2.3,14.2,10.4,12.9,17.5c-0.6,3.3-1.9,6.3-2.6,8c0,0,0,0,0,0l-0.1,0c0.2,1,1.1,3.2,2.3,5.9c0.4,0.8,0.8,1.7,1.3,3.1l0,0l0,0
		l0.3,0.8l0.1,0.1c1.5,3.9,2.3,10.5,1.2,18.7l0,0c-0.8,6.2-2.6,13.6-5.9,21.6l-0.2,0.3c-0.2,0.5-0.4,0.9-0.5,1.4
		c-0.1,0.4-0.1,0.8,0,1.3c0.4,2.8,1.7,5.9,3.2,9.4c2.7,6.6,5.8,14.1,5.6,23.9c-0.2,8.8-5.1,37.2-11.1,58.3
		c-4.5,15.8-10.4,28-16.9,27.8c-6.6-0.1-11.7-12.5-15.3-28.3c-4.9-21.4-8.2-50.1-8-58.9c0.2-9.9,3.7-17.2,6.7-23.7
		c1.6-3.4,3-6.4,3.6-9.2c0.1-0.4,0.1-0.8,0-1.2c-0.1-0.5-0.2-0.9-0.4-1.3l-0.1-0.8c-3-8.4-4.5-16-4.9-22.3
		c-0.5-6.9,0.3-12.5,1.6-16.4l-0.2-0.3l1.1-2.3c0.5-1.1,1-2,1.4-2.8c1.3-2.7,2.4-4.9,2.6-5.9l-0.1,0c0,0.1,0,0.1-0.1,0
		c-0.8-2.1-2.3-6-2.4-10.2c-0.2-7.3,3-14.6,17.1-15l0.3,0l0,0C242.3,198.3,242.6,198.3,243,198.3L243,198.3z"/>
	<path class="st5" d="M242,209.6c-0.2,0-0.4,0-0.7,0l-3,15.9c-0.6,3-2.3,6.2-3.6,8.9c-0.4,0.8-0.8,1.7-1.2,2.5l-0.5,1.4
		c-1.2,3.5-1.3,8.3-1,12c0.2,2.7,1,5.6,1.7,8.2c1.1,4.1,2.2,8.2,3,12.4c0.4,1,0.4,1.2,0.7,3.2c0.3,2.4,0.3,2.4-0.2,4.9
		c-0.8,4.1-2.7,8-4.4,11.8c-3,6.4-5.5,11.9-5.6,19.1c-0.1,4.8,0.6,10.4,1.1,15.2c0.9,8.1,2,16.1,3.4,24.1c1,5.6,2,11.2,3.3,16.8
		c0.7,2.9,2.5,10.3,4.7,15.5c2.5-5.2,4.8-12.7,5.7-15.6c1.5-5.4,2.9-10.9,4.2-16.3c1.8-7.9,3.4-15.9,4.7-24
		c0.8-4.7,1.8-10.4,1.9-15.1c0.2-7.2-2.1-12.8-4.8-19.3c-1.6-3.9-3.3-7.8-3.9-12c-0.3-1.7-0.2-3.5,0.1-5.2c0.5-2.8,0.5-2.4,1.5-4.3
		l0.2-0.3c2.6-5.3,3.8-10.7,4.6-16.5l0.2-1.5c0.5-3.6,0.7-9.7-0.6-13.3l-0.3-0.7l-0.1-0.2c-0.4-0.9-0.8-1.7-1.2-2.6
		c-1.2-2.7-2.7-5.9-3.2-8.8l-2.5-16.2c-0.2,0-0.4,0-0.7-0.1l-0.2,0c-0.4,0-0.9-0.1-1.4-0.1c-0.2,0-0.5,0-0.7,0
		C242.7,209.6,242.3,209.6,242,209.6L242,209.6z"/>
	<path class="st6" d="M206.2,160.5c0,0,0.1-0.4,0.2-1c0.1-0.5,0.4-1.9,0.8-3.3c0.5-1.4,1.2-3,2.3-4.6c1.1-1.6,2.7-3.4,4.6-4.8
		c2-1.5,4.4-2.7,7.1-3.4c2.7-0.7,5.8-0.8,8.6-0.2c3.1,0.6,6,1.9,8.5,3.9c2.5,1.9,4.5,4.6,5.8,7.5c1.3,2.9,1.8,6.2,1.6,9.3
		c0,0.8-0.1,1.5-0.2,2.2c-0.1,0.7-0.2,1.4-0.2,2.1c-0.2,1.4-0.3,2.7-0.5,4c-0.6,5.3-1.2,10.2-1.7,14.4c-1,8.5-1.6,14.1-1.6,14.1
		c-0.1,0.8-0.8,1.4-1.6,1.3c-0.8-0.1-1.3-0.8-1.3-1.6c0,0,0.5-5.7,1.2-14.1c0.3-4.2,0.8-9.2,1.2-14.5c0.1-1.3,0.2-2.7,0.3-4
		c0.1-0.7,0.1-1.4,0.2-2.1c0.1-0.7,0.1-1.4,0.1-2c0.1-2.5-0.4-5-1.5-7.2c-1.1-2.2-2.7-4.2-4.7-5.6c-1.9-1.4-4.2-2.4-6.4-2.7
		c-2.4-0.4-4.5-0.2-6.6,0.4c-2,0.6-3.7,1.5-5.1,2.7c-1.4,1.1-2.5,2.4-3.3,3.6c-0.8,1.2-1.2,2.4-1.6,3.4c-0.3,1-0.4,1.5-0.5,2.3
		c-0.1,0.7-0.1,1-0.1,1c-0.2,1.6-1.7,2.7-3.3,2.5C207,163.6,205.9,162.2,206.2,160.5C206.1,160.5,206.1,160.5,206.2,160.5
		L206.2,160.5z"/>
	<path class="st6" d="M290.9,168.9c0,0,0-0.4,0-1c0-0.5,0-1.9-0.2-3.4c-0.2-1.4-0.6-3.2-1.4-5c-0.8-1.8-1.9-3.8-3.6-5.6
		c-1.6-1.8-3.8-3.5-6.3-4.7c-2.5-1.2-5.5-1.9-8.4-1.9c-3.2-0.1-6.2,0.7-9.1,2.1c-2.8,1.4-5.3,3.6-7.1,6.2c-1.9,2.6-3,5.7-3.4,8.8
		c-0.1,0.8-0.2,1.5-0.2,2.2c-0.1,0.7-0.1,1.4-0.2,2.1c-0.1,1.4-0.2,2.7-0.3,4c-0.4,5.3-0.8,10.2-1.2,14.5
		c-0.7,8.5-1.2,14.1-1.2,14.1c-0.1,0.8,0.5,1.5,1.3,1.6c0.8,0.1,1.5-0.5,1.6-1.3c0,0,0.7-5.6,1.6-14.1c0.5-4.2,1.1-9.2,1.7-14.4
		c0.2-1.3,0.3-2.7,0.5-4c0.1-0.7,0.2-1.4,0.2-2.1c0.1-0.7,0.1-1.4,0.3-2c0.4-2.4,1.3-4.8,2.9-6.8c1.5-2,3.5-3.6,5.7-4.6
		c2.2-1,4.6-1.5,6.8-1.4c2.4,0.1,4.5,0.7,6.4,1.6c1.8,0.9,3.4,2.2,4.5,3.6c1.2,1.4,1.9,2.8,2.5,4.2c0.5,1.4,0.7,2.6,0.9,3.6
		c0.1,1,0.1,1.6,0,2.4c0,0.7-0.1,1-0.1,1c-0.1,1.6,1.1,3,2.7,3.1C289.4,171.8,290.8,170.6,290.9,168.9
		C290.9,168.9,290.9,168.9,290.9,168.9L290.9,168.9z"/>
</g>
</svg>
